<svg width="800" height="480" viewBox="0 0 800 480" fill="none" xmlns="http://www.w3.org/2000/svg">
<path d="M225.5 174.35C225.5 184.2 226.5 192.2 228.4 198.1C230.5 203.95 233.2 210.35 236.9 217.3C238.081 219.136 238.722 221.267 238.75 223.45C238.75 226.1 237.15 228.8 233.75 231.45L216.95 242.65C214.933 244.106 212.535 244.94 210.05 245.05C207.35 245.05 204.7 243.75 202.05 241.35C198.456 237.483 195.242 233.281 192.45 228.8C189.476 223.671 186.723 218.416 184.2 213.05C163.45 237.6 137.4 249.9 106 249.9C83.6501 249.9 65.8001 243.45 52.8001 230.65C39.7501 217.85 33.1001 200.75 33.1001 179.4C33.1001 156.7 41.1001 138.3 57.3001 124.4C73.5501 110.5 95.1001 103.6 122.5 103.6C131.5 103.6 140.85 104.4 150.7 105.7C160.55 107.05 170.7 109.2 181.3 111.6V92.1C181.3 71.8 177.05 57.65 168.8 49.4C160.3 41.1 145.9 37.1 125.4 37.1C116.1 37.1 106.55 38.2 96.7001 40.6C86.9137 42.9291 77.306 45.9534 67.9501 49.65C64.9295 51.0176 61.8229 52.1868 58.6501 53.15C57.2753 53.6043 55.846 53.8733 54.4001 53.95C50.6501 53.95 48.8001 51.25 48.8001 45.65V32.55C48.8001 28.3 49.3001 25.05 50.6501 23.25C52.665 20.7968 55.2362 18.8598 58.1501 17.6C67.4001 12.8 78.6001 8.8 91.6501 5.6C104.65 2.1 118.5 0.550008 133.15 0.550008C164.8 0.550008 187.95 7.75002 202.85 22.15C217.5 36.55 224.95 58.45 224.95 87.85V174.35H225.45H225.5ZM117.45 214.9C126.2 214.9 135.25 213.3 144.85 210.1C154.4 206.9 162.95 201 170.1 193C174.388 188.088 177.484 182.254 179.15 175.95C180.75 169.5 181.85 161.8 181.85 152.7V141.5C173.774 139.542 165.595 138.039 157.35 137C149.059 135.928 140.71 135.376 132.35 135.35C114.5 135.35 101.45 138.85 92.7001 146.05C83.9001 153.25 79.7001 163.4 79.7001 176.75C79.7001 189.25 82.8501 198.6 89.5001 205.05C95.9001 211.7 105.2 214.9 117.45 214.9ZM331.1 243.75C326.3 243.75 323.1 242.95 321 241.05C318.85 239.45 317 235.75 315.4 230.65L252.9 24.3C251.667 20.8415 250.845 17.2503 250.45 13.6C250.45 9.35002 252.6 6.95002 256.85 6.95002H282.95C287.95 6.95002 291.45 7.75002 293.3 9.60002C295.45 11.2 297.05 14.95 298.65 20L343.35 196.75L384.85 20C386.15 14.7 387.75 11.2 389.85 9.60002C393.058 7.63489 396.796 6.70933 400.55 6.95002H421.8C426.9 6.95002 430.3 7.75002 432.45 9.60002C434.6 11.2 436.45 14.95 437.5 20L479.55 198.9L525.55 20C526.403 16.1287 528.247 12.5452 530.9 9.60002C533.998 7.63653 537.64 6.70853 541.3 6.95002H566.05C570.3 6.95002 572.7 9.10002 572.7 13.6C572.7 14.95 572.4 16.3 572.2 17.9C571.77 20.1698 571.134 22.3957 570.3 24.55L506.15 230.9C504.55 236.25 502.7 239.75 500.6 241.35C497.581 243.281 494.028 244.209 490.45 244H467.6C462.55 244 459.1 243.2 456.95 241.35C454.8 239.45 452.95 236 451.9 230.65L410.65 58.5L369.65 230.45C368.35 235.8 366.75 239.25 364.65 241.1C362.5 243 358.75 243.8 354 243.8H331.1V243.75ZM673 250.95C659.192 250.968 645.43 249.357 632 246.15C618.7 242.95 608.35 239.45 601.4 235.45C597.15 233.05 594.25 230.4 593.15 227.95C592.134 225.597 591.606 223.063 591.6 220.5V206.9C591.6 201.3 593.7 198.6 597.7 198.6C599.333 198.604 600.954 198.874 602.5 199.4C604.1 199.95 606.5 201 609.15 202.1C618.15 206.1 628.05 209.3 638.4 211.45C649.05 213.55 659.4 214.65 670.05 214.65C686.85 214.65 699.85 211.7 708.9 205.85C713.248 203.218 716.82 199.481 719.253 195.019C721.686 190.557 722.892 185.53 722.75 180.45C722.84 177.02 722.25 173.606 721.014 170.405C719.779 167.204 717.921 164.28 715.55 161.8C710.8 156.7 701.75 152.15 688.7 147.9L650.1 135.9C630.7 129.75 616.3 120.65 607.55 108.65C598.984 97.5621 594.31 83.9611 594.25 69.95C594.25 58.75 596.65 48.85 601.4 40.3C606.2 31.8 612.6 24.3 620.6 18.4C628.6 12.3 637.6 7.75 648.25 4.55C658.9 1.35 670.05 0 681.75 0C687.65 0 693.75 0.250019 699.6 1.05002C705.7 1.85002 711.3 2.95002 716.9 4.05002C722.2 5.35002 727.3 6.65002 732.05 8.30002C736.85 9.90002 740.55 11.5 743.25 13.1C746.39 14.6766 749.126 16.9514 751.25 19.75C752.962 22.3533 753.786 25.44 753.6 28.55V41.1C753.6 46.7 751.5 49.65 747.5 49.65C743.958 49.2456 740.529 48.1589 737.4 46.45C721.322 39.3212 703.886 35.7726 686.3 36.05C671.15 36.05 659.15 38.45 650.9 43.55C642.65 48.55 638.4 56.35 638.4 67.3C638.4 74.75 641.05 81.15 646.4 86.25C651.7 91.3 661.55 96.35 675.65 100.9L713.45 112.9C732.6 119.05 746.45 127.6 754.7 138.55C762.95 149.5 766.9 162.05 766.9 175.95C766.9 187.45 764.55 197.8 760 206.9C755.289 216.031 748.674 224.045 740.6 230.4C732.35 237.05 722.5 241.9 711.05 245.35C699.05 249.1 686.55 250.95 673 250.95Z" fill="#252F3E"/>
<path fill-rule="evenodd" clip-rule="evenodd" d="M723.25 380.65C635.75 445.5 508.55 479.95 399.2 479.95C245.95 479.95 107.85 423.1 3.54993 328.6C-4.70007 321.1 2.74993 310.95 12.5499 316.85C125.4 382.5 264.55 422.3 408.55 422.3C505.6 422.3 612.3 402 710.5 360.35C725.15 353.7 737.65 369.95 723.25 380.65Z" fill="#F68301"/>
<path fill-rule="evenodd" clip-rule="evenodd" d="M759.7 339C748.55 324.65 685.75 332.1 657.3 335.55C648.8 336.65 647.45 329.15 655.15 323.55C705.15 288.3 787.4 298.45 796.95 310.2C806.55 322.2 794.3 404.7 747.45 444.2C740.3 450.35 733.4 447.2 736.55 439.2C747.2 412.7 770.9 353.2 759.7 339.05V339Z" fill="#F68301"/>
</svg>
