<svg width="1774" height="801" viewBox="0 0 1774 801" fill="none" xmlns="http://www.w3.org/2000/svg">
<path fill-rule="evenodd" clip-rule="evenodd" d="M1421.95 0.00209056C1338.86 0.0132731 1258.48 29.5866 1195.2 83.4319C1131.91 137.277 1089.85 211.882 1076.53 293.9C1063.21 375.919 1079.5 460.001 1122.5 531.105C1165.49 602.21 1232.38 655.698 1311.2 682.002C1328.7 685.252 1336.2 674.502 1336.2 665.252C1336.2 656.002 1336.2 635.002 1336.2 605.752C1238.95 626.752 1218.45 558.752 1218.45 558.752C1211.61 537.323 1197.22 519.109 1177.95 507.502C1146.2 486.002 1180.45 486.252 1180.45 486.252C1191.54 487.819 1202.13 491.899 1211.4 498.182C1220.67 504.464 1228.39 512.783 1233.95 522.502C1243.64 539.87 1259.82 552.682 1278.95 558.12C1298.08 563.559 1318.58 561.178 1335.95 551.502C1337.37 533.764 1345.19 517.146 1357.95 504.752C1280.45 495.752 1198.7 465.752 1198.7 331.752C1198.14 296.949 1211.03 263.273 1234.7 237.752C1223.99 207.607 1225.24 174.501 1238.2 145.252C1238.2 145.252 1267.45 135.752 1334.45 181.002C1391.74 165.376 1452.17 165.376 1509.45 181.002C1576.2 135.752 1605.45 145.252 1605.45 145.252C1618.41 174.501 1619.67 207.607 1608.95 237.752C1632.62 263.273 1645.52 296.949 1644.95 331.752C1644.95 466.252 1563.2 495.752 1485.2 504.502C1493.56 512.971 1500 523.133 1504.1 534.302C1508.2 545.471 1509.85 557.389 1508.95 569.252C1508.95 616.002 1508.95 653.752 1508.95 665.252C1508.95 676.752 1515.2 685.502 1533.95 682.002C1612.88 655.665 1679.84 602.074 1722.82 530.839C1765.81 459.603 1782.02 375.384 1768.54 293.282C1755.05 211.18 1712.76 136.567 1649.25 82.8213C1585.74 29.0761 1505.15 -0.285346 1421.95 0.00209056Z" fill="#F68301"/>
<path d="M14.634 486.33C-4.878 466.818 -4.878 435.182 14.634 415.67L314.67 115.634C334.182 96.122 365.818 96.122 385.33 115.634L685.365 415.67C704.878 435.182 704.878 466.818 685.365 486.33L385.33 786.365C365.818 805.878 334.182 805.878 314.67 786.365L14.634 486.33Z" fill="#F68301"/>
<path d="M216.382 213L186 243.384L264.472 321.856C261.297 328.667 259.525 336.262 259.525 344.272C259.525 367.012 273.812 386.414 293.9 393.992V585.957C273.812 593.534 259.525 612.937 259.525 635.677C259.525 665.017 283.31 688.802 312.65 688.802C341.99 688.802 365.775 665.017 365.775 635.677C365.775 615.062 354.032 597.187 336.87 588.382V394.254L411.883 469.267C408.863 475.939 407.182 483.347 407.182 491.147C407.182 520.487 430.967 544.272 460.307 544.272C489.647 544.272 513.432 520.487 513.432 491.147C513.432 461.807 489.647 438.022 460.307 438.022C454.605 438.022 449.115 438.919 443.965 440.582L363.402 360.019C364.945 355.044 365.775 349.754 365.775 344.272C365.775 314.931 341.99 291.146 312.65 291.146C307.167 291.146 301.88 291.977 296.903 293.519L216.382 213Z" fill="white"/>
</svg>
