<svg width="1129" height="1109" viewBox="0 0 1129 1109" fill="none" xmlns="http://www.w3.org/2000/svg">
<g clip-path="url(#clip0_14_335)">
<rect width="1129" height="1109" fill="#F68301"/>
<path d="M959.65 0H169.35C75.8206 0 0 74.4774 0 166.35V942.65C0 1034.52 75.8206 1109 169.35 1109H959.65C1053.18 1109 1129 1034.52 1129 942.65V166.35C1129 74.4774 1053.18 0 959.65 0Z" fill="#F68301"/>
<path d="M341.787 437.535H213.893C212.461 437.455 211.042 437.835 209.849 438.616C208.655 439.397 207.753 440.538 207.277 441.867L147.74 747.275C147.74 753.773 154.355 753.773 154.355 753.773H220.508C227.123 753.773 227.123 749.441 227.123 749.441L242.559 673.631H302.096C394.709 673.631 441.016 612.982 452.041 558.832C463.066 504.682 454.246 437.535 341.787 437.535ZM370.453 554.5C361.633 595.654 332.967 612.982 293.275 612.982H253.584L277.84 498.184H317.531C377.068 498.184 374.863 519.844 370.453 554.5Z" fill="#FFF1F1" stroke="white" stroke-width="6"/>
<path d="M606.396 673.631C597.576 673.631 599.781 664.967 599.781 664.967L626.242 532.84C626.242 515.512 639.473 498.184 586.551 500.35H546.859L513.783 669.299C513.783 669.299 513.783 675.797 504.963 675.797H441.016C434.4 675.797 434.4 669.299 434.4 669.299L496.143 363.891C496.143 363.891 496.143 359.559 504.963 359.559H571.115C577.73 359.559 575.525 366.057 575.525 366.057L560.09 439.701H617.422C696.805 439.701 716.65 476.523 710.035 519.844L681.369 669.299C681.369 669.299 681.369 675.797 670.344 675.797L606.396 673.631Z" fill="#FFF1F1" stroke="white" stroke-width="6"/>
<path d="M868.801 437.535H740.906C739.475 437.455 738.055 437.835 736.862 438.616C735.669 439.397 734.767 440.538 734.291 441.867L674.754 747.275C674.754 753.773 681.369 753.773 681.369 753.773H747.521C754.137 753.773 754.137 749.441 754.137 749.441L769.572 673.631H829.109C921.723 673.631 968.029 612.982 979.055 558.832C990.08 504.682 981.26 437.535 868.801 437.535ZM897.467 554.5C888.646 595.654 859.98 612.982 820.289 612.982H780.598L804.854 498.184H844.545C904.082 498.184 901.877 519.844 897.467 554.5Z" fill="#FFF1F1" stroke="white" stroke-width="6"/>
</g>
<defs>
<clipPath id="clip0_14_335">
<rect width="1129" height="1109" fill="white"/>
</clipPath>
</defs>
</svg>
