<svg width="800" height="1083" viewBox="0 0 800 1083" fill="none" xmlns="http://www.w3.org/2000/svg">
<path d="M214.125 633.42C273.826 661.827 336.807 675.502 400.075 673.795C463.345 675.491 526.326 661.805 586.025 633.386C632.625 608.781 649.15 581.436 649.15 565.698V445.384C632.858 460.154 615.379 472.371 597.05 481.8C533.886 512.418 467.157 527.346 400.075 525.864C332.999 527.318 266.276 512.415 203.1 481.867C184.762 472.438 167.281 460.197 151 445.384V565.529C151 581.571 167.575 608.781 214.125 633.42Z" fill="#F68301"/>
<path d="M214.05 743.243C235.14 754.131 256.888 762.522 279.05 768.321C318.901 778.757 359.411 783.892 400 783.652C440.589 783.903 481.098 778.78 520.95 768.355C543.111 762.555 564.86 754.164 585.95 743.276C632.55 718.672 649.075 691.326 649.075 675.589V560.859C635.608 571.829 621.453 581.172 606.775 588.78C540.419 620.585 470.38 635.98 400 634.232C329.612 635.926 259.573 620.473 193.225 588.611C178.553 580.983 164.4 571.641 150.925 560.689V675.521C150.925 691.292 167.5 718.537 214.05 743.243Z" fill="#F68301"/>
<path d="M400.075 1015.68C537.575 1015.68 649.15 956.661 649.15 883.897V787.882C636.899 797.88 624.065 806.505 610.775 813.671L606.85 815.803C540.507 847.703 470.468 863.19 400.075 861.526C329.68 863.238 259.634 847.749 193.3 815.803C191.95 815.127 190.65 814.348 189.375 813.671C176.086 806.505 163.251 797.88 151 787.882V883.897C151 956.661 262.575 1015.68 400.075 1015.68Z" fill="#F68301"/>
<path d="M400.075 331.263C537.636 331.263 649.15 272.259 649.15 199.475C649.15 126.691 537.636 67.6875 400.075 67.6875C262.515 67.6875 151 126.691 151 199.475C151 272.259 262.515 331.263 400.075 331.263Z" fill="#F68301"/>
</svg>
