<svg width="700" height="700" viewBox="0 0 700 700" fill="none" xmlns="http://www.w3.org/2000/svg">
<path d="M667.2 0H32.8C14.6851 0 0 14.6851 0 32.8V667.2C0 685.315 14.6851 700 32.8 700H667.2C685.315 700 700 685.315 700 667.2V32.8C700 14.6851 685.315 0 667.2 0Z" fill="#F68301"/>
<path fill-rule="evenodd" clip-rule="evenodd" d="M406.125 543.975V620.675C420.061 627.553 434.913 632.394 450.225 635.05C467.92 638.317 485.881 639.924 503.875 639.85C521.412 639.933 538.909 638.165 556.075 634.575C571.487 631.461 586.192 625.528 599.45 617.075C611.759 609.13 621.903 598.255 628.975 585.425C641.641 558.858 643.312 528.367 633.625 500.575C629.538 490.182 623.447 480.694 615.7 472.65C607.385 464.097 597.939 456.72 587.625 450.725C575.751 443.771 563.414 437.64 550.7 432.375C540.7 428.225 531.7 424.192 523.7 420.275C516.595 416.873 509.795 412.867 503.375 408.3C498.347 404.775 493.98 400.391 490.475 395.35C487.447 390.773 485.87 385.388 485.95 379.9C485.883 374.849 487.291 369.888 490 365.625C492.943 361.163 496.868 357.435 501.475 354.725C507.107 351.409 513.235 349.02 519.625 347.65C527.47 345.907 535.489 345.068 543.525 345.15C550.284 345.173 557.033 345.658 563.725 346.6C570.953 347.577 578.103 349.056 585.125 351.025C592.268 353.005 599.254 355.512 606.025 358.525C612.596 361.454 618.881 364.986 624.8 369.075V297.5C612.478 292.838 599.699 289.486 586.675 287.5C570.948 285.212 555.068 284.133 539.175 284.275C521.803 284.181 504.482 286.154 487.575 290.15C472.294 293.642 457.763 299.849 444.675 308.475C432.517 316.574 422.478 327.47 415.4 340.25C407.899 354.442 404.188 370.329 404.625 386.375C404.071 407.595 411.061 428.323 424.35 444.875C440.655 463.227 461.215 477.297 484.225 485.85C494.725 490.183 504.517 494.425 513.6 498.575C521.796 502.222 529.673 506.545 537.15 511.5C543.181 515.423 548.478 520.373 552.8 526.125C556.601 531.342 558.617 537.646 558.55 544.1C558.585 548.937 557.343 553.697 554.95 557.9C552.292 562.417 548.555 566.205 544.075 568.925C538.469 572.343 532.336 574.809 525.925 576.225C517.574 578.092 509.032 578.973 500.475 578.85C483.683 578.819 467.025 575.858 451.25 570.1C434.771 564.153 419.488 555.305 406.125 543.975ZM277.275 353.025H377.275V289.85H98.4502V353.025H198V634.375H277.275V353.025Z" fill="white"/>
</svg>
